<svg width="30" height="30" viewBox="0 0 30 30" fill="none" xmlns="http://www.w3.org/2000/svg">
<g clip-path="url(#clip0_7_849)">
<path d="M29.7075 15.3456C29.7075 14.3259 29.6248 13.3007 29.4485 12.2976H15.3V18.0738H23.4022C23.0659 19.9368 21.9857 21.5848 20.4038 22.632V26.3799H25.2375C28.0761 23.7674 29.7075 19.9092 29.7075 15.3456Z" fill="#4285F4"/>
<path d="M15.3 30.0012C19.3456 30.0012 22.7573 28.6728 25.2431 26.38L20.4093 22.6321C19.0645 23.547 17.3283 24.0651 15.3055 24.0651C11.3922 24.0651 8.07421 21.425 6.88369 17.8755H1.89563V21.7392C4.44202 26.8044 9.6285 30.0012 15.3 30.0012Z" fill="#34A853"/>
<path d="M6.87816 17.8754C6.24983 16.0124 6.24983 13.9952 6.87816 12.1322V8.26855H1.89561C-0.231888 12.507 -0.231888 17.5006 1.89561 21.7391L6.87816 17.8754Z" fill="#FBBC04"/>
<path d="M15.3 5.93708C17.4385 5.90401 19.5054 6.70871 21.0542 8.18583L25.3367 3.90327C22.625 1.35688 19.0259 -0.0430825 15.3 0.00101083C9.6285 0.00101083 4.44202 3.19778 1.89563 8.26851L6.87818 12.1322C8.06318 8.57716 11.3867 5.93708 15.3 5.93708Z" fill="#EA4335"/>
</g>
<defs>
<clipPath id="clip0_7_849">
<rect width="30" height="30" fill="white"/>
</clipPath>
</defs>
</svg>
